REM MD5 5e71d34b05619fd6ed1053eb6f2fb51a
FILE "Euro Demo 10-98 (Germany).bin" BINARY
  TRACK 01 MODE2/2352
    INDEX 01 00:00:00
  TRACK 02 AUDIO
    INDEX 00 34:33:02
    INDEX 01 34:35:02
  TRACK 03 AUDIO
    INDEX 00 38:15:05
    INDEX 01 38:17:05
  TRACK 04 AUDIO
    INDEX 00 39:42:24
    INDEX 01 39:44:24
  TRACK 05 AUDIO
    INDEX 00 40:45:64
    INDEX 01 40:47:64
REM LEADOUT 43:49:20
